<svg width="24" height="25" viewBox="0 0 24 25" fill="none" xmlns="http://www.w3.org/2000/svg">
<g clip-path="url(#clip0_604_1145)">
<path d="M4.00436 6.45568L0.761719 3.21304L2.17593 1.79883L5.41857 5.04147H20.6603C21.2126 5.04147 21.6603 5.48918 21.6603 6.04147C21.6603 6.13879 21.6461 6.23559 21.6182 6.32881L19.2182 14.3289C19.0913 14.7518 18.7019 15.0415 18.2603 15.0415H6.00436V17.0415H17.0044V19.0415H5.00436C4.45207 19.0415 4.00436 18.5938 4.00436 18.0415V6.45568ZM5.50436 23.0415C4.67593 23.0415 4.00436 22.3699 4.00436 21.5415C4.00436 20.7131 4.67593 20.0415 5.50436 20.0415C6.33279 20.0415 7.00436 20.7131 7.00436 21.5415C7.00436 22.3699 6.33279 23.0415 5.50436 23.0415ZM17.5044 23.0415C16.6759 23.0415 16.0044 22.3699 16.0044 21.5415C16.0044 20.7131 16.6759 20.0415 17.5044 20.0415C18.3328 20.0415 19.0044 20.7131 19.0044 21.5415C19.0044 22.3699 18.3328 23.0415 17.5044 23.0415Z" fill="white"/>
<circle cx="17.5" cy="6.5" r="6.5" fill="#ECA30C"/>
<path d="M16.36 4V3.168H18.024V9H17.104V4H16.36Z" fill="white"/>
</g>
<defs>
<clipPath id="clip0_604_1145">
<rect width="24" height="24" fill="white" transform="translate(0 0.0390625)"/>
</clipPath>
</defs>
</svg>
